<svg xmlns="http://www.w3.org/2000/svg" version="1.1" viewBox="0 0 279.75 218.9"><defs><style>.cls-1{fill:#221f20;}</style></defs><title>Asset 1</title><g id="Layer_2" data-name="Layer 2"><g id="Layer_1-2" data-name="Layer 1"><path class="cls-1" d="M233.07,125.47A40.61,40.61,0,0,1,236,150.59c20.4-3.72,45.22-9.24,43.7-12.82C275.44,127.75,255.72,123.43,233.07,125.47Z"/><path class="cls-1" d="M233.05,151.25c-.18,10.52-2.61,17.91-9.67,24.69,20.87,9.55,40.1,11.66,43.95,5.12C269.32,177.67,251.79,162.28,233.05,151.25Z"/><circle class="cls-1" cx="159.31" cy="124.89" r="12.42"/><path class="cls-1" d="M236.71,116.31A84.52,84.52,0,0,0,103,67.22a25.35,25.35,0,0,1-29.19,41.34,84.48,84.48,0,1,0,163,7.75Zm-63.63,42.11a25.34,25.34,0,1,1,25.34-25.34A25.33,25.33,0,0,1,173.08,158.42Z"/><circle class="cls-1" cx="87.54" cy="87.54" r="12.35" transform="translate(-26.84 134.91) rotate(-67.5)"/><path class="cls-1" d="M60.16,157.41A75,75,0,1,1,142.67,36.65,97.37,97.37,0,0,1,154.19,36c1.39,0,2.77,0,4.15.09a87.54,87.54,0,1,0-93,136.16A94.58,94.58,0,0,1,60.16,157.41Z"/><path class="cls-1" d="M57.08,133.08c0-1.93.06-3.84.17-5.74a50,50,0,0,1,56.35-82.5,94.69,94.69,0,0,1,14.1-5.21A62.52,62.52,0,1,0,57.53,142.4C57.24,139.33,57.08,136.22,57.08,133.08Z"/><path class="cls-1" d="M64.2,96.53a25,25,0,0,1,23.27-34,97.43,97.43,0,0,1,12.87-10.27,37.51,37.51,0,0,0-41,60A96.16,96.16,0,0,1,64.2,96.53Z"/></g></g></svg>