<?xml version="1.0" standalone="no"?>
<!DOCTYPE svg PUBLIC "-//W3C//DTD SVG 20010904//EN"
 "http://www.w3.org/TR/2001/REC-SVG-20010904/DTD/svg10.dtd">
<svg version="1.0" xmlns="http://www.w3.org/2000/svg"
 width="1120.000000pt" height="1120.000000pt" viewBox="0 0 1120.000000 1120.000000"
 preserveAspectRatio="xMidYMid meet">
<metadata>
Created by potrace 1.11, written by Peter Selinger 2001-2013
</metadata>
<g transform="translate(0.000000,1120.000000) scale(0.100000,-0.100000)"
fill="#000000" stroke="none">
<path d="M3388 9975 c-2 -2 -61 -6 -132 -9 -71 -4 -132 -8 -135 -10 -3 -2 -33
-6 -66 -10 -64 -7 -74 -8 -205 -32 -70 -12 -163 -35 -330 -79 -195 -51 -495
-177 -725 -304 -88 -48 -378 -238 -410 -268 -11 -10 -29 -25 -41 -33 -12 -8
-45 -35 -75 -60 -302 -255 -537 -525 -742 -852 -68 -109 -178 -317 -234 -443
-78 -177 -171 -464 -207 -640 -3 -11 -11 -51 -19 -90 -9 -38 -18 -92 -21 -120
-4 -27 -9 -63 -11 -80 -22 -148 -29 -260 -29 -485 0 -113 4 -236 7 -275 10
-94 19 -176 23 -197 1 -9 6 -38 10 -65 13 -90 42 -237 55 -279 5 -17 12 -41
14 -54 37 -192 227 -656 353 -864 23 -37 42 -70 42 -72 0 -2 37 -59 82 -126
72 -107 184 -255 267 -352 58 -68 285 -294 346 -344 35 -30 74 -63 87 -74 86
-76 331 -245 471 -325 113 -64 291 -151 417 -203 131 -54 390 -140 420 -140
17 0 17 2 -2 41 -32 68 -118 306 -152 427 -18 62 -37 116 -42 121 -5 4 -40 20
-79 36 -151 61 -390 195 -550 308 -160 113 -239 181 -401 344 -372 373 -617
800 -769 1338 -9 33 -19 71 -22 85 -2 13 -10 53 -18 90 -37 177 -58 383 -59
575 0 114 10 317 18 360 2 11 7 47 10 80 4 33 9 67 12 76 2 10 6 30 9 45 11
82 90 384 114 439 5 11 23 58 41 105 18 47 61 145 96 218 347 728 995 1294
1773 1548 107 35 308 86 391 99 25 4 52 9 60 10 8 1 40 6 70 10 30 3 66 8 80
10 114 16 391 22 535 11 529 -40 1012 -206 1445 -495 187 -125 288 -206 443
-358 l108 -105 67 6 c142 15 183 17 369 19 l192 1 -27 36 c-153 201 -364 425
-537 571 -420 353 -889 596 -1395 724 -172 43 -172 43 -335 69 -30 5 -150 20
-257 31 -54 6 -395 14 -400 10z"/>
<path d="M3408 8975 c-2 -2 -48 -6 -103 -9 -55 -4 -111 -8 -125 -10 -94 -14
-123 -19 -185 -32 -122 -25 -359 -98 -444 -136 -372 -167 -604 -327 -853 -587
-236 -246 -412 -524 -533 -841 -42 -112 -105 -333 -121 -430 -4 -25 -8 -47 -9
-50 -32 -142 -39 -600 -11 -735 2 -11 7 -40 10 -65 30 -222 135 -544 239 -740
55 -103 121 -215 129 -218 4 -2 8 -8 8 -14 0 -14 87 -133 174 -238 169 -203
387 -392 603 -524 50 -30 97 -57 104 -58 12 -3 14 83 3 136 -4 19 -7 412 -3
432 4 22 -4 34 -48 68 -197 152 -429 448 -546 696 -186 394 -238 849 -146
1275 75 342 241 663 480 928 68 74 193 189 253 232 15 11 37 28 49 38 35 30
191 124 275 167 100 50 204 91 327 128 87 27 127 37 231 56 23 5 110 16 164
22 45 4 316 4 355 -1 17 -2 55 -6 85 -10 209 -25 476 -111 679 -220 l102 -55
67 31 c37 17 72 32 77 33 6 1 19 7 30 13 11 6 22 11 25 11 3 0 19 6 35 12 17
6 93 33 170 59 77 25 142 50 145 53 7 10 -156 132 -275 207 -234 147 -597 291
-825 327 -14 2 -34 6 -46 9 -12 3 -39 7 -60 10 -21 3 -53 8 -70 10 -76 13
-407 28 -416 20z"/>
<path d="M3380 7969 c-179 -16 -311 -49 -480 -121 -297 -127 -566 -377 -721
-671 -122 -233 -179 -474 -174 -732 3 -107 11 -203 21 -237 5 -18 11 -45 20
-93 29 -163 177 -458 299 -596 l32 -36 28 111 c32 133 80 287 130 420 l37 98
-20 67 c-11 36 -23 82 -26 101 -3 19 -9 46 -12 60 -7 34 -7 227 1 270 26 144
64 254 126 361 163 282 449 465 774 495 33 3 67 7 77 8 9 1 41 24 71 51 131
120 340 286 417 332 17 9 30 20 30 24 0 12 -165 60 -250 73 -137 20 -268 25
-380 15z"/>
<path d="M5979 7976 c-2 -2 -44 -6 -94 -10 -49 -3 -99 -8 -110 -10 -12 -2 -48
-7 -80 -11 -33 -4 -78 -11 -100 -15 -22 -5 -56 -12 -75 -15 -72 -12 -249 -57
-360 -91 -348 -108 -716 -294 -991 -502 l-47 -35 73 -71 c176 -172 283 -395
302 -627 8 -102 8 -107 0 -194 -27 -286 -180 -549 -422 -726 -275 -201 -650
-243 -974 -109 -40 16 -88 39 -106 50 -18 11 -35 20 -38 20 -6 0 -42 -108 -51
-154 -3 -11 -7 -30 -10 -41 -21 -85 -56 -248 -61 -285 -3 -25 -8 -52 -10 -60
-2 -8 -6 -40 -9 -70 -4 -30 -9 -82 -13 -115 -15 -138 -7 -614 11 -711 2 -10 7
-41 10 -69 12 -86 17 -119 21 -135 2 -8 7 -31 10 -50 3 -19 11 -53 17 -75 5
-22 12 -51 15 -65 21 -121 125 -420 210 -605 36 -77 67 -148 70 -157 3 -10 9
-18 14 -18 5 0 9 -4 9 -10 0 -15 106 -195 173 -295 220 -325 421 -537 787
-828 39 -31 234 -159 314 -206 343 -201 788 -363 1146 -417 25 -3 52 -8 61 -9
9 -2 40 -6 70 -10 30 -3 65 -8 79 -10 96 -15 448 -22 570 -11 36 3 92 8 125
11 33 3 69 7 81 9 12 2 45 7 75 11 30 3 61 8 69 10 8 2 31 7 50 10 19 3 55 11
80 16 25 6 53 12 63 14 9 2 45 11 80 20 34 9 69 18 77 20 103 25 334 110 485
178 506 229 977 608 1305 1052 54 72 187 272 192 287 3 7 62 -11 148 -45 180
-68 427 -146 550 -172 238 -51 352 -64 520 -60 80 2 152 5 160 7 8 3 31 8 50
13 108 25 202 98 202 158 0 93 -216 327 -547 592 -27 22 -52 42 -55 45 -32 32
-341 252 -498 355 -128 83 -133 88 -128 116 3 16 9 42 12 58 4 23 12 30 37 35
18 3 43 8 57 11 14 3 41 8 60 11 19 3 134 26 255 51 248 50 227 46 316 67 37
8 78 17 90 20 71 13 399 95 484 121 6 1 15 4 20 5 46 13 220 77 260 96 129 61
145 84 109 155 -76 151 -301 298 -575 374 -187 51 -329 74 -564 91 -66 5 -206
8 -311 8 l-192 0 -7 50 c-11 92 -16 120 -36 221 -78 395 -223 773 -419 1093
-16 26 -41 67 -56 92 -122 200 -365 485 -579 680 -337 307 -776 560 -1220 703
-173 56 -336 97 -445 113 -19 3 -48 8 -65 11 -36 7 -60 10 -140 18 -33 4 -67
9 -75 12 -16 5 -505 14 -511 9z m1077 -2321 c16 -3 45 -8 64 -11 172 -27 377
-136 514 -271 152 -151 246 -328 291 -548 14 -66 13 -262 -1 -340 -68 -385
-349 -702 -714 -805 -109 -31 -149 -35 -305 -34 -168 1 -256 21 -410 94 -265
125 -458 351 -538 630 -35 120 -44 212 -38 370 l1 35 28 -48 c60 -104 203
-213 307 -232 184 -35 347 11 467 129 99 98 148 211 150 344 1 125 -28 215
-101 312 -88 116 -206 182 -355 194 -32 3 -60 7 -62 9 -2 2 29 22 69 45 70 40
209 97 262 106 14 3 34 8 46 11 52 17 258 23 325 10z"/>
<path d="M3448 6965 c-1 -1 -22 -5 -45 -9 -24 -3 -69 -17 -100 -32 -183 -83
-293 -258 -293 -464 0 -213 171 -422 385 -470 303 -68 596 159 604 470 6 227
-151 436 -369 493 -49 12 -172 21 -182 12z"/>
</g>
</svg>
